{"title":"Revolution Z - Season 1 - Episode 3","uid":7808735,"size":409364480,"categoryP":"video","categoryS":"tv_shows","magnet":"?xt=urn:btih:f1ccbf376af6372880993946a0eb98b2415d0f4a&amp;dn=Revolution+Z+-+Season+1+-+Episode+3&amp;tr=udp%3A%2F%2Ftracker.openbittorrent.com%3A80&amp;tr=udp%3A%2F%2Fopen.demonii.com%3A1337&amp;tr=udp%3A%2F%2Ftracker.coppersurfer.tk%3A6969&amp;tr=udp%3A%2F%2Fexodus.desync.com%3A6969","seeders":0,"leechers":0,"uploader":null,"files":-1,"time":1352471478,"description":"Format                                   : AVI\nFormat/Info                              : Audio Video Interleave\nFile size                                : 390 MiB\nDuration                                 : 47mn 6s\nOverall bit rate                         : 1 159 Kbps\nWriting application                      : VirtualDubMod 1.5.10.2 (build 2542/release)\nWriting library                          : VirtualDubMod build 2542/release\n\nVideo\nID                                       : 0\nFormat                                   : MPEG-4 Visual\nFormat profile                           : Advanced Simple@L5\nFormat settings, BVOP                    : 2\nFormat settings, QPel                    : No\nFormat settings, GMC                     : No warppoints\nFormat settings, Matrix                  : Default (H.263)\nMuxing mode                              : Packed bitstream\nCodec ID                                 : XVID\nCodec ID/Hint                            : XviD\nDuration                                 : 47mn 6s\nBit rate                                 : 1 021 Kbps\nWidth                                    : 720 pixels\nHeight                                   : 400 pixels\nDisplay aspect ratio                     : 1.731\nOriginal display aspect ratio            : 16:9\nFrame rate                               : 25.000 fps\nColor space                              : YUV\nChroma subsampling                       : 4:2:0\nBit depth                                : 8 bits\nScan type                                : Progressive\nCompression mode                         : Lossy\nBits/(Pixel*Frame)                       : 0.142\nStream size                              : 344 MiB (88%)\nWriting library                          : XviD 64\n\nAudio\nID                                       : 1\nFormat                                   : MPEG Audio\nFormat version                           : Version 1\nFormat profile                           : Layer 3\nMode                                     : Joint stereo\nMode extension                           : MS Stereo\nCodec ID                                 : 55\nCodec ID/Hint                            : MP3\nDuration                                 : 47mn 6s\nBit rate mode                            : Constant\nBit rate                                 : 128 Kbps\nChannel(s)                               : 2 channels\nSampling rate                            : 44.1 KHz\nCompression mode                         : Lossy\nStream size                              : 43.1 MiB (11%)\nAlignment                                : Split accross interleaves\nInterleave, duration                     : 38 ms (0.95 video frame)\nInterleave, preload duration             : 500 ms\n\n","torrent":{"xt":"urn:btih:f1ccbf376af6372880993946a0eb98b2415d0f4a","amp;dn":"Revolution+Z+-+Season+1+-+Episode+3","amp;tr":["udp%3A%2F%2Ftracker.openbittorrent.com%3A80","udp%3A%2F%2Fopen.demonii.com%3A1337","udp%3A%2F%2Ftracker.coppersurfer.tk%3A6969","udp%3A%2F%2Fexodus.desync.com%3A6969"],"infoHash":"f1ccbf376af6372880993946a0eb98b2415d0f4a","infoHashBuffer":{"type":"Buffer","data":[241,204,191,55,106,246,55,40,128,153,57,70,160,235,152,178,65,93,15,74]},"announce":[],"urlList":[]}}